<svg width="40" height="40" viewBox="0 0 40 40" fill="none" xmlns="http://www.w3.org/2000/svg">
<path d="M20.4542 6.00003C20.9545 6.07085 21.4608 6.11379 21.9543 6.21775C27.4029 7.36669 30.9566 10.6116 32.6247 15.917C32.9901 17.0795 33.1181 18.2865 33.1294 19.504C33.1332 19.9779 32.8416 20.3372 32.413 20.4231C32.2124 20.4607 32.005 20.426 31.8277 20.3252C31.6503 20.2244 31.5144 20.0639 31.4441 19.8724C31.3995 19.7293 31.3781 19.58 31.3808 19.4301C31.3386 17.3409 30.8338 15.3731 29.7467 13.5845C27.7622 10.3223 24.8782 8.37474 21.0826 7.85866C15.8427 7.14595 10.8499 10.0609 8.73512 14.8314C6.6934 19.4384 7.92973 25.0844 11.7261 28.3926C13.5665 30.0267 15.8706 31.0464 18.3176 31.3097C18.7184 31.3557 19.1238 31.361 19.5276 31.376C20.055 31.3964 20.4437 31.7625 20.4452 32.2492C20.4467 32.7359 20.0444 33.1375 19.5035 33.1232C14.7111 32.9989 10.9343 30.9662 8.24315 27.0056C6.55704 24.5246 5.81192 21.7318 6.0402 18.7475C6.42218 13.7518 8.85566 10.0202 13.2314 7.58217C14.8595 6.67809 16.6292 6.19063 18.4894 6.04749C18.5631 6.0372 18.6361 6.02211 18.7079 6.00228L20.4542 6.00003Z" fill="white"/>
<path d="M31.3808 27.8765C31.3808 27.1231 31.3876 26.4209 31.3808 25.7172C31.3808 25.4257 31.2113 25.2539 30.9235 25.2501C30.0591 25.2406 29.1947 25.2406 28.3303 25.2501C28.0387 25.2547 27.9008 25.4249 27.8865 25.7263C27.8876 25.9136 27.8773 26.1008 27.8556 26.2868C27.7803 26.7336 27.3975 27.0154 26.9417 26.989C26.7336 26.976 26.5374 26.8876 26.3898 26.7403C26.2423 26.593 26.1535 26.397 26.1401 26.1889C26.0723 25.3104 26.2471 24.5239 26.9907 23.9528C27.3815 23.6535 27.8615 23.4943 28.3536 23.5007C29.1989 23.4962 30.0442 23.4932 30.8903 23.5007C32.1749 23.5128 33.1106 24.4387 33.1332 25.7225C33.1452 26.4262 33.1332 27.1306 33.1332 27.8531C33.2025 27.8697 33.2628 27.8818 33.3223 27.8983C33.7389 28.0136 33.9951 28.3263 33.9966 28.7595C34.0011 30.5074 34.0011 32.255 33.9966 34.0024C33.9997 34.1182 33.9791 34.2335 33.9361 34.3411C33.893 34.4486 33.8284 34.5463 33.7461 34.6279C33.6639 34.7096 33.5658 34.7736 33.458 34.8159C33.3501 34.8582 33.2347 34.878 33.1189 34.8741C30.7893 34.8796 28.4596 34.8796 26.1296 34.8741C26.0136 34.8761 25.8984 34.8547 25.7909 34.811C25.6835 34.7674 25.586 34.7024 25.5043 34.62C25.4226 34.5377 25.3585 34.4396 25.3157 34.3318C25.273 34.2239 25.2526 34.1085 25.2556 33.9926C25.2491 32.2547 25.2491 30.5167 25.2556 28.7783C25.2556 28.2457 25.6323 27.8825 26.1687 27.8818C27.7848 27.8772 29.4008 27.8818 31.0169 27.8818L31.3808 27.8765ZM27.0065 33.1081H32.2268V29.6523H27.0065V33.1081Z" fill="white"/>
<path d="M20.003 19.1295H20.3518C21.6673 19.1295 22.9827 19.1295 24.2981 19.1295C24.8602 19.1295 25.2437 19.4798 25.2497 19.9854C25.2557 20.4909 24.8632 20.8751 24.2966 20.8759C22.6055 20.8789 20.9141 20.8789 19.2225 20.8759C18.6145 20.8759 18.2551 20.5173 18.2551 19.9146C18.2551 17.3394 18.2551 14.7646 18.2551 12.1899C18.2551 11.646 18.6318 11.2482 19.1276 11.2474C19.6233 11.2467 20.0015 11.6452 20.0023 12.1884C20.0023 14.3778 20.0023 16.5672 20.0023 18.7566L20.003 19.1295Z" fill="white"/>
</svg>
