<svg width="40" height="40" viewBox="0 0 40 40" fill="none" xmlns="http://www.w3.org/2000/svg">
<path d="M33.8204 32.2237C33.5418 31.8846 33.0883 31.8467 32.7183 32.1335C32.2126 32.525 31.8056 32.5113 31.2662 32.0844C30.9426 31.8391 30.5789 31.6524 30.1913 31.5326C29.967 31.4729 29.7354 31.4458 29.5034 31.452H29.4818C29.4818 31.4464 29.489 31.4407 29.493 31.4351C30.8072 29.5037 31.6031 27.265 31.804 24.935C31.9019 23.8716 31.4283 23.1079 30.4338 22.7261L30.0637 22.5827C29.615 22.4087 29.151 22.2291 28.6887 22.0688C28.4904 22.0003 28.4479 21.9415 28.4479 21.7369C28.4639 20.141 28.4655 18.4727 28.4479 16.6376C28.4398 15.5163 27.5818 14.6583 26.4524 14.6414C26.3175 14.6414 26.1819 14.6414 26.0446 14.6414H26.0125V11.8799H26.23C26.3729 11.8799 26.5166 11.8799 26.6595 11.8799C26.9926 11.8799 27.3369 11.8799 27.6773 11.8735C28.1083 11.859 28.4254 11.5593 28.4479 11.1428C28.4622 10.9453 28.3998 10.7499 28.2739 10.5975C28.1479 10.4451 27.968 10.3475 27.772 10.3252C27.6826 10.314 27.5924 10.31 27.5023 10.3131H22.3072V10.1109C22.3072 9.92077 22.3072 9.7312 22.3072 9.54216C22.3072 9.12487 22.312 8.69228 22.3008 8.26694C22.2687 7.11095 21.4178 6.14427 20.3149 6.01779C19.1173 5.87924 18.0673 6.56236 17.7687 7.67807C17.7042 7.94414 17.6722 8.21707 17.6732 8.49089C17.6644 8.9557 17.666 9.41085 17.6676 9.89339C17.6676 10.0328 17.6676 10.1721 17.6676 10.3131H13.2744H12.9927C12.7687 10.3131 12.5367 10.3083 12.3072 10.3195C12.1868 10.3222 12.0686 10.3515 11.9609 10.4054C11.8532 10.4593 11.7587 10.5364 11.6843 10.6313C11.6163 10.7215 11.569 10.8257 11.5458 10.9364C11.5227 11.0472 11.5241 11.1616 11.5502 11.2717C11.6305 11.6366 11.9572 11.8751 12.3834 11.8791C12.7904 11.8839 13.1861 11.8791 13.6083 11.8791H13.976V14.643C13.9099 14.6467 13.8437 14.6467 13.7777 14.643C13.4882 14.614 13.1958 14.6477 12.9204 14.7417C12.645 14.8358 12.3929 14.9881 12.1811 15.1884C11.7332 15.6145 11.4988 16.2219 11.5205 16.901C11.5542 17.9483 11.5478 19.0092 11.5414 20.0427C11.5414 20.6236 11.535 21.2245 11.5414 21.815C11.5414 21.9632 11.5189 21.9979 11.3808 22.0446C10.9723 22.1831 10.5621 22.3338 10.1655 22.4804L9.62854 22.677C8.61312 23.0451 8.09057 23.8724 8.19331 24.9479C8.40107 27.2705 9.19987 29.5007 10.5131 31.4246C9.81477 31.3892 9.20873 31.6123 8.6669 32.1005C8.23023 32.4944 7.76948 32.5033 7.30231 32.1327C6.90578 31.8185 6.47553 31.8459 6.17853 32.2028C5.90079 32.5387 5.95056 32.9705 6.30375 33.3048C6.74815 33.7192 7.32986 33.9535 7.93642 33.9624C8.54297 33.9714 9.13128 33.7543 9.5876 33.3532C10.1744 32.8465 10.5701 32.8465 11.1561 33.3532C11.6118 33.7511 12.1962 33.969 12.8003 33.9664C13.4044 33.9637 13.9869 33.7406 14.4391 33.3387C14.9416 32.8972 15.4096 32.9004 15.9137 33.3483C16.368 33.7631 16.9587 33.9952 17.5729 34C18.1814 33.9951 18.7668 33.7657 19.2176 33.3556C19.7795 32.8577 20.1608 32.8577 20.7243 33.3556C21.1748 33.7628 21.7592 33.9889 22.3655 33.9903C22.9718 33.9918 23.5573 33.7687 24.0097 33.3636C24.5821 32.8585 24.9481 32.8553 25.5172 33.3499C26.4805 34.1853 27.8788 34.1837 28.7762 33.3451C29.2875 32.8674 29.8502 32.8618 30.3583 33.3403C30.5871 33.5533 30.856 33.7184 31.1492 33.8258C31.4423 33.9333 31.7539 33.981 32.0657 33.9662C32.728 33.9387 33.3526 33.6491 33.8027 33.1606C33.9259 33.0371 33.9966 32.8705 33.9999 32.6958C34.0032 32.521 33.9388 32.3518 33.8204 32.2237ZM20.0307 7.54596C20.416 7.56529 20.7259 7.85288 20.7363 8.20008C20.7524 8.71645 20.7492 9.22637 20.7452 9.76611C20.7452 9.94118 20.7452 10.1176 20.7452 10.2954H19.2618C19.2618 10.1117 19.2618 9.92964 19.2569 9.74758C19.2497 9.17482 19.2433 8.63428 19.2746 8.08569C19.2939 7.75541 19.6896 7.52743 20.0307 7.54596ZM15.5565 14.6285V11.8968H24.4312V14.6285H15.5565ZM16.9291 32.1529C15.8326 31.191 14.5716 31.1862 13.4687 32.1456C13.4157 32.1915 13.3587 32.2334 13.2792 32.2914L13.2503 32.3124C13.1259 32.1674 13.0007 32.0232 12.8787 31.883C12.5327 31.4875 12.2068 31.1129 11.9154 30.7044C10.6466 28.9438 9.89187 26.863 9.7361 24.6957C9.71603 24.454 9.78105 24.2704 10.1639 24.1318L15.8302 22.0712L19.1855 20.854L19.2289 20.8403V28.8041C19.2289 28.8847 19.2289 28.9652 19.2337 29.0458C19.2435 29.2437 19.3284 29.4304 19.4709 29.5676C19.6134 29.7048 19.8028 29.7821 20.0002 29.7837C20.1977 29.7815 20.3869 29.7037 20.5292 29.5663C20.6715 29.4289 20.7562 29.2421 20.766 29.0442C20.7716 28.9636 20.7716 28.8831 20.7708 28.8025V20.8354C20.8278 20.8523 20.88 20.8693 20.9314 20.8878L25.16 22.4143L29.7065 24.0545C30.278 24.2615 30.2981 24.2921 30.2395 24.8794C29.9594 27.7198 28.8227 30.1599 26.8625 32.1295C26.7285 32.2648 26.6948 32.2648 26.5415 32.1295C25.3944 31.1523 24.1863 31.1676 23.0473 32.173C22.6459 32.525 22.1643 32.525 21.763 32.173C21.1963 31.6792 20.6007 31.4327 20.0043 31.4327C19.4079 31.4327 18.8195 31.6744 18.2552 32.1633C17.8482 32.5105 17.3305 32.5057 16.9291 32.1529ZM26.9171 21.4203C26.8738 21.4066 26.8369 21.3937 26.7935 21.3792L25.2387 20.8113C23.6879 20.2474 22.0849 19.6585 20.5027 19.1002C20.188 18.9967 19.8486 18.9967 19.5339 19.1002C17.9437 19.6553 16.3383 20.2401 14.7867 20.8056L13.2367 21.3695C13.1853 21.3889 13.1339 21.4058 13.0761 21.4235C13.0761 21.3856 13.0761 21.3494 13.0761 21.3147C13.0761 19.8271 13.0761 18.3392 13.0761 16.8511C13.0761 16.3355 13.2166 16.1945 13.7271 16.1945H26.2565C26.7823 16.1945 26.9179 16.3339 26.9179 16.872C26.9179 17.9064 26.9179 18.9407 26.9179 19.9751L26.9171 21.4203Z" fill="white"/>
</svg>
