<svg width="40" height="40" viewBox="0 0 40 40" fill="none" xmlns="http://www.w3.org/2000/svg">
<path d="M6.00068 20.2721V19.7252C6.08135 19.4668 6.12988 19.192 6.24883 18.9528C6.71162 18.0162 7.49092 17.5651 8.5252 17.5391C8.79316 17.5323 9.06182 17.5391 9.32295 17.5391V14.2578C9.04951 14.2578 8.78633 14.2578 8.5252 14.2578C7.68369 14.2435 6.96387 13.9427 6.49219 13.2325C6.2625 12.8907 6.16065 12.4593 6.00068 12.0703V11.5235C6.01714 11.4912 6.0302 11.4573 6.03965 11.4223C6.26045 10.2602 7.05068 9.49799 8.22715 9.36332C8.5833 9.32299 8.94834 9.35716 9.33525 9.35716C9.33525 9.04817 9.33184 8.78636 9.33525 8.52455C9.34961 7.68304 9.65107 6.96322 10.3606 6.49085C10.7024 6.26185 11.1338 6.15999 11.5228 6.00003H30.1726C30.431 6.08069 30.7058 6.12923 30.945 6.24818C31.915 6.73011 32.3594 7.54154 32.3601 8.61C32.3601 13.711 32.3587 18.8117 32.356 23.9122C32.3526 24.0014 32.3672 24.0903 32.3989 24.1737C32.4306 24.2571 32.4788 24.3332 32.5405 24.3976C33.1822 25.0999 33.6298 25.9573 33.8394 26.8852C33.8975 27.1409 33.9474 27.3993 34.0007 27.6563V28.75C33.9809 28.8375 33.9569 28.9237 33.9419 29.0119C33.5577 31.2554 32.3197 32.8174 30.1951 33.6453C29.7528 33.8175 29.2695 33.8845 28.8054 34H11.5241C11.5091 33.9905 11.4947 33.9741 11.479 33.9713C10.2123 33.7936 9.2915 32.6643 9.33594 31.3176C9.34277 31.1036 9.33594 30.889 9.33594 30.6641C9.03105 30.6641 8.76719 30.6689 8.50332 30.6641C7.67139 30.645 6.95908 30.3435 6.49287 29.6442C6.26318 29.3024 6.16064 28.8697 6 28.478V27.9311C6.08066 27.6727 6.1292 27.3979 6.24814 27.1586C6.71094 26.2221 7.49023 25.7709 8.52451 25.745C8.79248 25.7381 9.06113 25.745 9.32227 25.745V22.4637C9.04883 22.4637 8.78564 22.4637 8.52451 22.4637C7.68301 22.4494 6.96318 22.1486 6.4915 21.4383C6.26045 21.0924 6.16065 20.6631 6.00068 20.2721ZM30.7105 22.9942C30.7146 22.9258 30.7187 22.8834 30.7187 22.8383C30.7187 18.0723 30.7187 13.3065 30.7187 8.54095C30.7203 8.44091 30.7084 8.34111 30.6832 8.24427C30.5704 7.83412 30.2594 7.63929 29.7344 7.63929H11.9924C11.9281 7.63929 11.8645 7.63929 11.801 7.63929C11.33 7.6598 10.9971 7.98656 10.9807 8.4555C10.9711 8.72894 10.9868 9.00238 10.9745 9.27582C10.9677 9.42689 11.021 9.49457 11.1577 9.55951C12.0929 10.0025 12.6035 10.7544 12.6069 11.7832C12.611 12.8237 12.1004 13.5845 11.1536 14.0316C11.0952 14.0509 11.0453 14.0901 11.0126 14.1422C10.9799 14.1944 10.9665 14.2563 10.9745 14.3173C10.9809 15.3655 10.9809 16.4137 10.9745 17.4619C10.9663 17.527 10.9809 17.5931 11.0158 17.6487C11.0506 17.7044 11.1037 17.7463 11.1659 17.7674C12.099 18.2131 12.6063 18.9671 12.6076 19.9959C12.609 21.0247 12.1024 21.7794 11.1721 22.2285C11.0285 22.2969 10.9745 22.3701 10.9759 22.53C10.9827 23.5602 10.9861 24.5897 10.9759 25.6192C10.9759 25.8243 11.049 25.9111 11.2268 25.9986C12.0614 26.4087 12.5352 27.0923 12.6062 28.0179C12.6773 28.9435 12.3383 29.7474 11.5351 30.2054C11.0388 30.4864 10.9137 30.8001 10.9813 31.2923C10.9841 31.3467 10.9841 31.4013 10.9813 31.4557C10.9971 32.0026 11.3532 32.3594 11.8987 32.3601C15.9351 32.3601 19.972 32.3601 24.0093 32.3601C24.0735 32.3601 24.1378 32.3464 24.2246 32.3369C22.0699 30.0988 22.1267 27.0117 23.515 24.9759C24.8583 22.9962 27.7082 21.6783 30.7105 22.9942ZM28.2496 24.1009C27.1619 24.1072 26.1209 24.544 25.3542 25.3156C24.5875 26.0873 24.1576 27.1311 24.1583 28.2189C24.1686 30.5014 26.0184 32.3635 28.2688 32.3574C30.5191 32.3512 32.3614 30.4809 32.3601 28.1997C32.3559 27.1117 31.9211 26.0697 31.1506 25.3014C30.3802 24.5332 29.3369 24.1013 28.2489 24.1002L28.2496 24.1009ZM9.29355 12.6159C9.57588 12.6159 9.85889 12.622 10.1405 12.6159C10.6259 12.6022 10.982 12.244 10.9752 11.786C10.9712 11.5694 10.8818 11.3631 10.7263 11.2122C10.5708 11.0614 10.3619 10.9781 10.1453 10.9807C9.58978 10.9707 9.03402 10.9707 8.47803 10.9807C7.99268 10.9889 7.63652 11.3519 7.64336 11.8099C7.6502 12.257 8.00088 12.6022 8.47324 12.6165C8.74668 12.6213 9.02012 12.6159 9.29355 12.6159ZM9.30928 19.1784C9.02695 19.1784 8.74394 19.1702 8.4623 19.1784C7.99268 19.1941 7.64199 19.5482 7.64199 19.9987C7.64117 20.1066 7.66183 20.2137 7.70277 20.3136C7.7437 20.4134 7.80409 20.5042 7.88043 20.5805C7.95677 20.6569 8.04752 20.7173 8.14742 20.7582C8.24731 20.7991 8.35435 20.8198 8.4623 20.819C9.02695 20.8299 9.59183 20.8299 10.1569 20.819C10.2649 20.8197 10.3719 20.799 10.4717 20.758C10.5716 20.717 10.6623 20.6567 10.7386 20.5803C10.8149 20.504 10.8753 20.4133 10.9163 20.3134C10.9573 20.2136 10.978 20.1066 10.9772 19.9987C10.9772 19.5509 10.6286 19.1968 10.1569 19.1784C9.87461 19.1715 9.5916 19.1784 9.30928 19.1784ZM9.33389 29.0221C9.59844 29.0221 9.8623 29.0276 10.1269 29.0221C10.617 29.0105 10.9738 28.6639 10.9752 28.2059C10.9766 27.7479 10.6204 27.3931 10.1323 27.3856C9.58545 27.3769 9.03858 27.3769 8.4917 27.3856C8.00156 27.3924 7.64473 27.7431 7.64336 28.2011C7.64199 28.6591 7.99814 29.0105 8.48623 29.0214C8.76855 29.0269 9.05156 29.0221 9.33662 29.0221H9.33389Z" fill="white"/>
<path d="M16.7194 13.9271C17.081 13.5613 17.4126 13.2257 17.7448 12.8914C18.2785 12.3564 18.8133 11.8223 19.3492 11.2891C19.7464 10.8967 20.2379 10.8728 20.5797 11.2207C20.9215 11.5687 20.8948 12.0554 20.4976 12.4512C19.4567 13.4962 18.4136 14.5393 17.3681 15.5807C16.9464 15.9997 16.4945 16.0025 16.0755 15.5889C15.4921 15.0133 14.9127 14.4338 14.3371 13.8505C13.9488 13.4588 13.9269 12.9564 14.2769 12.62C14.6269 12.2837 15.1075 12.3131 15.491 12.6884C15.8943 13.089 16.2874 13.493 16.7194 13.9271Z" fill="white"/>
<path d="M16.7077 20.4772C16.8076 20.3815 16.88 20.3152 16.9497 20.2455C17.7486 19.4475 18.5477 18.65 19.3471 17.8529C19.7443 17.4592 20.2358 17.4352 20.5776 17.7845C20.9194 18.1339 20.8948 18.6192 20.4983 19.015C19.4569 20.0595 18.4138 21.1025 17.3688 22.1438C16.9395 22.5711 16.491 22.567 16.057 22.1363C15.4814 21.5662 14.9083 20.9931 14.3377 20.4171C13.9488 20.0247 13.9276 19.5243 14.2748 19.1866C14.6221 18.8489 15.1061 18.8769 15.4889 19.255C15.8929 19.6501 16.2867 20.0541 16.7077 20.4772Z" fill="white"/>
<path d="M16.7331 27.0397C17.6184 26.1511 18.4797 25.2863 19.339 24.4195C19.5939 24.1625 19.8811 24.0237 20.2481 24.1461C20.3727 24.1842 20.4862 24.252 20.5789 24.3435C20.6716 24.435 20.7408 24.5476 20.7805 24.6716C20.8203 24.7956 20.8294 24.9275 20.8072 25.0558C20.785 25.1842 20.732 25.3052 20.6528 25.4087C20.597 25.4814 20.536 25.5499 20.4703 25.6138C19.4531 26.6319 18.4357 27.6493 17.4181 28.666C16.9361 29.1445 16.5062 29.1493 16.0276 28.6728C15.4603 28.1075 14.8956 27.5381 14.3269 26.9741C14.0808 26.7301 13.9687 26.4464 14.065 26.1073C14.2346 25.5092 14.9537 25.3198 15.4233 25.7573C15.7904 26.0991 16.135 26.4614 16.4904 26.8148C16.5602 26.8805 16.6333 26.9468 16.7331 27.0397Z" fill="white"/>
<path d="M25.7975 14.2565C25.0141 14.2565 24.23 14.2565 23.4466 14.2565C22.8902 14.2565 22.5183 13.9243 22.5183 13.4362C22.5183 12.9481 22.8902 12.6159 23.4459 12.6159C25.0136 12.6159 26.5811 12.6159 28.1484 12.6159C28.7048 12.6159 29.0767 12.9481 29.0767 13.4362C29.0767 13.9243 28.7048 14.2565 28.1491 14.2565C27.365 14.2565 26.5816 14.2565 25.7975 14.2565Z" fill="white"/>
<path d="M25.79 20.819C25.006 20.819 24.2226 20.819 23.4385 20.819C22.8861 20.819 22.5136 20.4772 22.5184 19.9919C22.5231 19.5065 22.8909 19.1811 23.4269 19.1798C25.0032 19.1798 26.5798 19.1798 28.1566 19.1798C28.709 19.1798 29.0815 19.5216 29.0768 20.0069C29.072 20.4923 28.7042 20.819 28.1683 20.819C27.3753 20.819 26.5823 20.819 25.79 20.819Z" fill="white"/>
<path d="M29.078 27.3815C29.3617 27.3815 29.6064 27.3815 29.8512 27.3815C30.3584 27.3911 30.7207 27.739 30.7173 28.2073C30.7173 28.6646 30.357 29.0126 29.8662 29.0194C29.3385 29.0269 28.8101 29.0276 28.2823 29.0194C27.7826 29.0112 27.4477 28.6735 27.4401 28.1718C27.4324 27.644 27.4324 27.1161 27.4401 26.5879C27.4477 26.0991 27.8004 25.743 28.2604 25.743C28.7205 25.743 29.0671 26.0991 29.0808 26.5872C29.0835 26.8408 29.078 27.0944 29.078 27.3815Z" fill="white"/>
</svg>
