<svg width="40" height="42" viewBox="0 0 40 42" fill="none" xmlns="http://www.w3.org/2000/svg">
<g filter="url(#filter0_d_320_2591)">
<path d="M34.0023 7.0921C33.7832 7.35654 33.5838 7.63559 33.3493 7.88176C32.9672 8.2828 32.5625 8.66339 32.1432 9.07685C32.4683 9.39534 32.7627 9.69119 33.0658 9.97828C33.1842 10.0852 33.2762 10.218 33.3346 10.3664C33.393 10.5149 33.4163 10.6748 33.4026 10.8337C33.2784 13.145 33.1581 15.456 33.0417 17.7668C33.0045 18.4856 32.9687 19.2044 32.9307 19.9232C32.9188 20.1894 32.8035 20.4405 32.6093 20.623C28.2593 24.9709 23.9096 29.3198 19.5601 33.6696C19.1123 34.1167 18.6251 34.1079 18.1722 33.6565C14.2352 29.7191 10.2985 25.783 6.36198 21.848C5.87619 21.363 5.87985 20.8933 6.37002 20.4031C10.6864 16.0859 15.0022 11.7677 19.3176 7.44858C19.438 7.3255 19.5816 7.22742 19.7401 7.15998C19.8985 7.09254 20.0688 7.05705 20.241 7.05558C21.775 6.98253 23.3164 6.90144 24.8541 6.82255C26.1647 6.75534 27.4767 6.71079 28.7836 6.60852C29.3877 6.56177 29.8742 6.67572 30.2563 7.16734C30.4455 7.40914 30.6727 7.62171 30.9013 7.86862C31.3849 7.38357 31.8203 6.93286 32.2732 6.49894C32.4764 6.32185 32.6885 6.15532 32.9088 6.00002H33.3471C33.4954 6.05954 33.6301 6.14847 33.7431 6.26147C33.8561 6.37446 33.945 6.50916 34.0045 6.65746L34.0023 7.0921ZM18.9187 31.8689C18.983 31.7959 19.0429 31.7111 19.1138 31.641C21.0589 29.693 23.0047 27.7468 24.9513 25.8022C26.9748 23.7787 28.9959 21.7541 31.0145 19.7282C31.1117 19.6389 31.1767 19.52 31.1994 19.3899C31.3494 16.6603 31.4911 13.9305 31.6245 11.2004C31.6336 11.1211 31.615 11.0411 31.5719 10.9739C31.3725 10.7402 31.1592 10.5196 30.9437 10.2865C30.3439 10.887 29.7866 11.4371 29.2423 12.001C29.2133 12.044 29.1944 12.0931 29.1873 12.1445C29.1803 12.196 29.1851 12.2483 29.2014 12.2976C29.4206 12.8338 29.517 13.3802 29.4133 13.9543C29.1897 15.1962 28.4716 16.0268 27.2663 16.3547C26.0609 16.6827 24.9944 16.3474 24.1981 15.3722C23.4019 14.397 23.2945 13.2794 23.8599 12.1478C24.5605 10.7475 26.2114 10.1755 27.6651 10.7818C27.7492 10.8169 27.9004 10.8395 27.9486 10.7935C28.5293 10.2325 29.0962 9.65759 29.7018 9.05128C29.5228 8.88838 29.3483 8.75324 29.2029 8.59253C29.0436 8.41575 28.8771 8.36023 28.6324 8.37338C26.0127 8.51948 23.3921 8.65463 20.7706 8.77881C20.6684 8.77777 20.567 8.79757 20.4727 8.837C20.3783 8.87644 20.293 8.93468 20.222 9.00818C16.2577 12.9821 12.2886 16.9528 8.31464 20.9203C8.25182 20.9831 8.19118 21.0496 8.14443 21.0993L18.9187 31.8689ZM27.7097 13.5051C27.707 13.1832 27.5779 12.8753 27.3503 12.6478C27.1226 12.4202 26.8146 12.2913 26.4927 12.2888C26.1709 12.2907 25.8629 12.4196 25.6355 12.6473C25.4082 12.8751 25.2799 13.1833 25.2786 13.5051C25.2793 13.827 25.4076 14.1356 25.6352 14.3632C25.8629 14.5909 26.1715 14.7191 26.4934 14.7199C26.8153 14.7186 27.1237 14.5902 27.3515 14.3627C27.5792 14.1352 27.708 13.827 27.7097 13.5051Z" fill="white"/>
<path d="M22.9095 22.2045C22.8101 22.1526 22.5749 22.0906 22.4251 21.943C20.9592 20.4976 19.5021 19.0437 18.0538 17.5812C17.9719 17.5015 17.9066 17.4063 17.8616 17.3012C17.8166 17.1961 17.7928 17.0832 17.7916 16.9689C17.7903 16.8546 17.8117 16.7411 17.8544 16.6351C17.8972 16.5291 17.9605 16.4326 18.0406 16.3511C18.1215 16.2672 18.2185 16.2005 18.3257 16.1549C18.433 16.1093 18.5483 16.0858 18.6648 16.0858C18.7814 16.0858 18.8967 16.1093 19.004 16.1549C19.1112 16.2005 19.2082 16.2672 19.2891 16.3511C20.7428 17.795 22.1923 19.2436 23.6378 20.6968C23.7708 20.8178 23.8612 20.9784 23.8958 21.1548C23.9304 21.3312 23.9073 21.5141 23.8299 21.6764C23.6882 22.0212 23.4091 22.187 22.9095 22.2045Z" fill="white"/>
<path d="M20.6223 24.637C20.5594 25.0278 20.3995 25.301 20.0729 25.4537C19.9255 25.5286 19.7593 25.5584 19.595 25.5396C19.4307 25.5208 19.2755 25.4541 19.1488 25.3478C19.1132 25.3194 19.0795 25.2887 19.048 25.2558C17.6177 23.8255 16.1888 22.3937 14.7614 20.9605C14.6292 20.8246 14.5352 20.6563 14.4889 20.4725C14.4463 20.2934 14.4646 20.1052 14.5408 19.9377C14.617 19.7701 14.7467 19.6326 14.9097 19.547C15.0732 19.4523 15.2635 19.4145 15.4508 19.4395C15.6381 19.4645 15.8118 19.5508 15.9448 19.685C17.4058 21.1372 18.8605 22.5946 20.3089 24.057C20.4572 24.2075 20.52 24.442 20.6223 24.637Z" fill="white"/>
</g>
<defs>
<filter id="filter0_d_320_2591" x="-4" y="0" width="48" height="48" filterUnits="userSpaceOnUse" color-interpolation-filters="sRGB">
<feFlood flood-opacity="0" result="BackgroundImageFix"/>
<feColorMatrix in="SourceAlpha" type="matrix" values="0 0 0 0 0 0 0 0 0 0 0 0 0 0 0 0 0 0 127 0" result="hardAlpha"/>
<feOffset dy="4"/>
<feGaussianBlur stdDeviation="2"/>
<feComposite in2="hardAlpha" operator="out"/>
<feColorMatrix type="matrix" values="0 0 0 0 0 0 0 0 0 0 0 0 0 0 0 0 0 0 0.25 0"/>
<feBlend mode="normal" in2="BackgroundImageFix" result="effect1_dropShadow_320_2591"/>
<feBlend mode="normal" in="SourceGraphic" in2="effect1_dropShadow_320_2591" result="shape"/>
</filter>
</defs>
</svg>
