<svg width="40" height="40" viewBox="0 0 40 40" fill="none" xmlns="http://www.w3.org/2000/svg">
<path d="M6 20.8234V19.1827C6.01712 19.0861 6.03697 18.9902 6.04998 18.8929C6.11845 18.388 6.15543 17.8776 6.2506 17.3782C6.7525 14.6437 8.07573 12.1272 10.0438 10.1645C12.1349 8.05247 14.6477 6.72208 17.583 6.21582C18.1109 6.1247 18.6442 6.07128 19.1749 6.00003H20.8181C20.8976 6.01647 20.9763 6.03496 21.0564 6.0473C21.8198 6.16581 22.5956 6.22952 23.3446 6.40901C30.5271 8.13057 35.1542 15.3504 33.7486 22.6189C33.1645 25.6407 31.7534 28.2166 29.4816 30.2861C26.2409 33.2394 22.4107 34.4171 18.0705 33.8656C15.3063 33.5141 12.8709 32.379 10.7826 30.5334C8.32248 28.3597 6.78397 25.6558 6.21773 22.412C6.12325 21.8859 6.07052 21.3529 6 20.8234ZM16.6757 21.3714C13.4858 19.0717 13.4857 14.9867 15.5241 12.6629C17.6857 10.1967 21.3631 9.89597 23.7863 11.9875C24.9756 13.0151 25.6979 14.3037 25.8404 15.8711C26.0499 18.1626 25.1557 19.9773 23.3214 21.3673C26.4223 22.6251 28.4141 24.8509 29.3289 28.0515C33.3309 23.5725 33.7109 15.8019 28.2888 10.8626C22.9071 5.95756 14.6326 6.71592 10.1725 12.5328C5.97467 18.0064 7.58164 24.7954 10.6676 28.0254C11.5755 24.8317 13.5809 22.6292 16.6757 21.3701V21.3714ZM20.219 32.3632C20.5121 32.3393 21.0407 32.3139 21.5638 32.2488C23.6251 31.9991 25.5864 31.2182 27.2556 29.9827C27.9759 29.4565 27.9643 29.4415 27.7506 28.5639C26.7483 24.4494 22.8161 21.8503 18.6511 22.5532C15.2529 23.1259 12.5689 25.8983 12.1075 29.3229C12.1062 29.3723 12.1157 29.4214 12.1352 29.4668C12.1547 29.5123 12.1838 29.5529 12.2204 29.586C14.4861 31.4124 17.0783 32.3269 20.219 32.3632ZM19.9828 20.735C22.3073 20.7515 24.2163 18.8627 24.2484 16.513C24.2799 14.2009 22.369 12.2608 20.0348 12.2348C17.7007 12.2087 15.776 14.1009 15.7425 16.4602C15.7089 18.7874 17.6261 20.7206 19.9828 20.7371V20.735Z" fill="white"/>
</svg>
